<svg width="20" height="21" viewBox="0 0 20 21" fill="none" xmlns="http://www.w3.org/2000/svg">
<path d="M1 17.5182V10.343C1 9.24808 1.48204 8.20865 2.31787 7.50131L8.39697 2.35677C9.32234 1.57365 10.6781 1.57365 11.6034 2.35676L17.6826 7.50131C18.5184 8.20865 19.0005 9.24808 19.0005 10.343V17.5182C19.0005 18.8889 17.8893 20 16.5186 20H14.3593C13.674 20 13.1184 19.4444 13.1184 18.7591V15.5335C13.1184 14.8481 12.5628 14.2926 11.8775 14.2926H8.32561C7.64028 14.2926 7.0847 14.8481 7.0847 15.5335V18.7591C7.0847 19.4444 6.52913 20 5.84379 20H3.48182C2.11115 20 1 18.8889 1 17.5182Z" stroke="#000000" stroke-width="1.86137" stroke-linejoin="round"/>
</svg>
